<svg width="302" height="71" viewBox="0 0 302 71" fill="none" xmlns="http://www.w3.org/2000/svg">
<mask id="mask0_219_8087" style="mask-type:luminance" maskUnits="userSpaceOnUse" x="0" y="0" width="302" height="72">
<path d="M301.615 0H0V71.0081H301.615V0Z" fill="white"/>
</mask>
<g mask="url(#mask0_219_8087)">
<path d="M60.8401 52.801L58.305 71.0081H0V69.5516L45.1773 6.19051H22.3623C15.4817 6.19051 10.8341 7.6775 8.41983 10.6513C7.57482 11.7438 6.88072 12.9576 6.3375 14.2928C5.85464 15.5672 5.43213 17.4487 5.06999 19.937H2.2634L4.34571 2.18494H58.7576V3.82358L14.0331 67.0936H40.6504C43.6081 67.0936 46.1732 66.7598 48.3461 66.0922C50.5793 65.364 52.2995 64.3322 53.5066 62.9969C54.0497 62.4507 54.5025 61.8743 54.8646 61.2673C55.2871 60.6605 55.6795 59.9928 56.0417 59.2644C56.464 58.4756 56.8564 57.5651 57.2186 56.5335C57.5807 55.5016 57.9731 54.2575 58.3954 52.801H60.8401Z" fill="#F9FAFB"/>
<path d="M100.24 59.0824C100.24 61.3887 100.451 62.9969 100.873 63.9075C101.296 64.757 102.11 65.1818 103.317 65.1818C104.706 65.1818 106.215 64.5445 107.845 63.2702V65.9102C106.095 67.8523 104.556 69.1874 103.228 69.9156C101.9 70.644 100.36 71.0081 98.6104 71.0081C96.4975 71.0081 94.9283 70.4317 93.9022 69.2785C92.9365 68.0646 92.3328 66.0619 92.0914 63.2702C88.9528 66.0013 86.2067 67.9735 83.8526 69.1874C81.4988 70.4012 79.2053 71.0081 76.9719 71.0081C73.7127 71.0081 71.057 69.9764 69.0048 67.9131C67.0131 65.8496 66.0172 63.1791 66.0172 59.9018C66.0172 58.2631 66.319 56.6246 66.9225 54.9857C67.5864 53.2864 68.5219 51.9209 69.729 50.8892C70.8156 49.9182 71.8115 49.0989 72.7168 48.4312C73.6825 47.7028 74.9198 46.9746 76.4288 46.2463C77.9376 45.4575 79.8994 44.5774 82.3136 43.6063C84.7279 42.6353 87.9269 41.3305 91.9103 39.6918V33.0462C91.9103 30.1937 91.2163 28.0391 89.8281 26.5826C88.5003 25.126 86.5687 24.3977 84.0338 24.3977C81.9212 24.3977 80.1408 24.9136 78.6922 25.9453C77.3039 26.9165 76.6098 28.0999 76.6098 29.4957C76.6098 30.042 76.6702 30.7399 76.791 31.5896C76.9719 32.4392 77.0625 33.1371 77.0625 33.6834C77.0625 34.8972 76.5796 35.9289 75.6139 36.7785C74.7086 37.6283 73.6525 38.0532 72.4453 38.0532C71.2382 38.0532 70.1819 37.6283 69.2764 36.7785C68.4315 35.8683 68.009 34.8061 68.009 33.5924C68.009 32.2572 68.3711 30.8918 69.0954 29.4957C69.88 28.0999 70.9362 26.8557 72.2641 25.7633C73.6525 24.5494 75.4933 23.6087 77.7868 22.9411C80.1408 22.2736 82.6757 21.9397 85.3918 21.9397C88.5304 21.9397 91.156 22.4861 93.2683 23.5784C95.441 24.6102 97.1011 26.0667 98.2473 27.9482C98.9716 29.162 99.4854 30.5882 99.7867 32.2269C100.089 33.8048 100.24 35.9593 100.24 38.6903V59.0824ZM91.9103 42.2407C88.7718 43.394 86.0859 44.5167 83.8526 45.6092C81.6798 46.6409 79.8994 47.7333 78.511 48.8864C77.1833 49.9788 76.2176 51.1624 75.6139 52.4368C75.0104 53.7113 74.7086 55.1071 74.7086 56.6246V57.0797C74.7086 58.172 74.8896 59.2341 75.2519 60.266C75.6139 61.237 76.0968 62.0867 76.7004 62.8149C77.3643 63.5433 78.1188 64.1198 78.9639 64.5446C79.8088 64.9695 80.6839 65.1818 81.5894 65.1818C82.6757 65.1818 83.8828 64.9695 85.2108 64.5446C86.5989 64.0592 87.8967 63.4825 89.1038 62.8149C90.311 62.1473 91.0654 61.4495 91.3671 60.7211C91.7293 59.9928 91.9103 58.8396 91.9103 57.2617V42.2407Z" fill="#F9FAFB"/>
<path d="M113.293 27.8569C114.742 27.4928 116.039 27.1286 117.186 26.7644C118.393 26.4004 119.57 26.0362 120.717 25.672C121.864 25.3079 122.98 24.9437 124.067 24.5797C125.213 24.1547 126.451 23.6994 127.779 23.2141L128.503 23.3962V31.2251C130.676 29.5866 132.517 28.2514 134.026 27.2197C135.535 26.1271 136.862 25.3079 138.009 24.7617C139.216 24.1547 140.303 23.7604 141.269 23.5782C142.235 23.3354 143.29 23.2141 144.437 23.2141C150.05 23.2141 153.701 26.1576 155.391 32.0445C158.289 28.9493 161.066 26.7038 163.722 25.3079C166.437 23.9119 169.305 23.2141 172.322 23.2141C180.349 23.2141 184.363 29.3438 184.363 41.6034V63.0878C184.363 67.0327 185.872 69.0962 188.89 69.2783L191.516 69.5514V71.008H168.882V69.5514C170.391 69.3692 171.567 69.1569 172.413 68.9142C173.319 68.6106 173.981 68.2163 174.404 67.7307C174.887 67.1845 175.189 66.4562 175.31 65.5458C175.491 64.6354 175.581 63.4217 175.581 61.9044V40.0558C175.581 37.8709 175.46 36.0502 175.219 34.5936C174.979 33.1369 174.554 31.9839 173.952 31.1342C173.348 30.2238 172.533 29.5866 171.507 29.2226C170.542 28.7976 169.335 28.5851 167.886 28.5851C165.472 28.5851 163.39 29.1012 161.639 30.1327C159.889 31.1037 158.229 32.7121 156.66 34.9576V61.176C156.66 62.7539 156.75 64.0893 156.931 65.1816C157.172 66.2134 157.564 67.0631 158.108 67.7307C158.712 68.3375 159.496 68.7928 160.462 69.0962C161.427 69.3389 162.634 69.4906 164.083 69.5514V71.008H140.906V69.5514C142.354 69.43 143.532 69.2479 144.437 69.0052C145.403 68.7625 146.127 68.3678 146.61 67.8218C147.153 67.2754 147.515 66.5471 147.697 65.6369C147.877 64.7264 147.968 63.5431 147.968 62.0864V39.5094C147.968 32.2265 145.734 28.5851 141.269 28.5851C139.337 28.5851 137.315 29.0101 135.202 29.8597C133.15 30.7094 131.521 31.7412 130.314 32.9549C129.408 33.9867 128.956 34.5936 128.956 34.7756V64.0893C128.956 66.1528 129.408 67.5485 130.314 68.2769C131.28 69.0052 133.15 69.43 135.927 69.5514V71.008H113.022V69.5514C114.47 69.4906 115.647 69.3389 116.552 69.0962C117.518 68.8534 118.272 68.4589 118.816 67.9127C119.359 67.3665 119.721 66.6382 119.901 65.7278C120.143 64.7568 120.265 63.5734 120.265 62.1775V35.868C120.265 33.3191 119.992 31.5893 119.45 30.6791C118.967 29.708 118.031 29.2226 116.643 29.2226C116.039 29.2226 115.496 29.283 115.013 29.4044C114.59 29.4652 114.017 29.5563 113.293 29.6776V27.8569Z" fill="#F9FAFB"/>
<mask id="mask1_219_8087" style="mask-type:luminance" maskUnits="userSpaceOnUse" x="196" y="22" width="50" height="50">
<path d="M245.013 22.5202H196.693V71.008H245.013V22.5202Z" fill="white"/>
</mask>
<g mask="url(#mask1_219_8087)">
<path d="M245.013 46.7641C245.013 33.3747 234.197 22.5202 220.853 22.5202C207.51 22.5202 196.693 33.3747 196.693 46.7641C196.693 60.1536 207.51 71.008 220.853 71.008C234.197 71.008 245.013 60.1536 245.013 46.7641Z" fill="#3B82F6"/>
<path d="M227.618 39.0062C227.618 35.2572 224.59 32.2179 220.854 32.2179C217.117 32.2179 214.089 35.2572 214.089 39.0062C214.089 42.7553 217.117 45.7945 220.854 45.7945C224.59 45.7945 227.618 42.7553 227.618 39.0062Z" fill="#F9FAFB"/>
<path d="M218.148 41.9153H223.559L227.618 61.3104H214.089L218.148 41.9153Z" fill="#F9FAFB"/>
</g>
<path d="M250.191 4.55179L253.269 3.82351C254.838 3.39868 256.196 3.03454 257.342 2.73108C258.49 2.36693 259.546 2.03318 260.512 1.72964C261.537 1.42618 262.472 1.15312 263.318 0.91036C264.222 0.606906 265.189 0.303454 266.216 0L266.578 0.273059V43.9703L280.791 31.2253C282.36 29.7687 283.145 28.5247 283.145 27.4929C283.145 26.886 282.782 26.4612 282.059 26.2184C281.335 25.9756 279.976 25.7936 277.985 25.6722V24.2155H299.08V25.8542C297.451 25.7936 295.97 25.915 294.643 26.2184C293.314 26.4612 291.867 27.0377 290.298 27.948C288.727 28.8584 286.888 30.1937 284.774 31.9536C282.662 33.653 279.976 35.9592 276.718 38.8723L273.729 41.6036L289.665 61.9046C291.775 64.5748 293.708 66.4867 295.458 67.6396C297.268 68.7322 299.322 69.3694 301.615 69.5514V71.0081H279.162V69.5514H281.064C281.726 69.5514 282.241 69.3999 282.601 69.0963C283.024 68.7929 283.236 68.3985 283.236 67.9129C283.236 67.6095 283.145 67.3059 282.965 67.0025C282.843 66.6384 282.543 66.2136 282.059 65.728C281.697 65.2424 281.485 64.939 281.426 64.8176L281.064 64.3624L266.578 44.9717V64.0893C266.578 65.8494 266.999 67.1542 267.845 68.0038C268.751 68.7929 270.23 69.248 272.281 69.3694L274.363 69.5514V71.0081H250.191V69.5514C252.001 69.248 253.419 68.9749 254.444 68.7322C255.532 68.4288 256.317 68.0646 256.8 67.6396C257.283 67.1542 257.584 66.517 257.704 65.728C257.825 64.939 257.886 63.8768 257.886 62.5417V12.3809C257.886 9.89259 257.584 8.22364 256.98 7.37397C256.377 6.52419 255.2 6.09937 253.449 6.09937C252.967 6.09937 252.455 6.12976 251.909 6.19046C251.428 6.19046 250.855 6.22085 250.191 6.28153V4.55179Z" fill="#F9FAFB"/>
</g>
</svg>
